<svg height="512" viewBox="0 0 511.992 511.992" width="512" xmlns="http://www.w3.org/2000/svg">
  <path
    d="M256.007 490.526h-.013c-29.039.002-57.644-9.798-80.545-27.596C96.877 401.87 2.658 300.429 0 163.919.407 39.158 140.853-22.395 234.507 56.964c8.325 7.189 15.528 15.144 21.489 23.621 5.961-8.477 13.164-16.431 21.489-23.621 93.729-79.392 234.104-17.744 234.507 106.954-2.658 136.51-96.877 237.951-175.449 299.012-22.898 17.795-51.501 27.595-80.536 27.596zm-.013-40h.013c20.192 0 40.075-6.811 55.991-19.18 71.655-55.685 157.556-147.373 159.998-268.007-.102-56.155-44.025-101.813-98-101.813-56.089 0-98 41.708-98 79 0 11.045-8.954 20-20 20s-20-8.955-20-20c0-37.292-41.911-79-98-79-53.975 0-97.898 45.657-98 101.813 2.442 120.634 88.343 212.322 159.998 268.007 15.917 12.37 35.806 19.182 56 19.18zM201.18 217.269c-1.565-15.136 7.022-25.382 18.793-26.621 29.746-3.006 32.13 47.917 5.353 51.785-11.77 1.239-22.581-10.028-24.146-25.164zm86.486 25.164c11.771 1.238 22.581-10.028 24.146-25.164 3.52-32.408-39.413-36.981-42.626-4.485-1.565 15.137 6.709 28.411 18.48 29.649zm-83.184 30.964c-2.599-15.032-13.811-22.57-25.684-20.547-29.967 5.232-18.414 55.008 8.892 51.428 11.873-2.023 19.391-15.849 16.792-30.881zm51.514-5.871c-25.844 0-55 65.836-55 81.74 0 23.775 23.955 24.26 55 24.26s55-.485 55-24.26c0-15.49-29.156-81.74-55-81.74zm78.198-15.676c-29.928-5.014-35.905 45.704-8.891 51.428 11.873 2.023 23.605-8.523 26.204-23.555s-5.44-25.85-17.313-27.873z" />
</svg>